<svg width="582" height="35" viewBox="0 0 582 35" fill="none" xmlns="http://www.w3.org/2000/svg">
<path d="M0 34.5179V0.465527H21.5629V6.40138H6.76573V14.5154H20.4535V20.4514H6.76573V28.582H21.6253V34.5179H0ZM52.7399 0.465527V34.5179H46.896L32.9739 13.0855H32.7396V34.5179H25.9738V0.465527H31.9114L45.7241 21.8812H46.0054V0.465527H52.7399ZM78.5808 11.4727C78.3621 10.6635 78.0548 9.9485 77.659 9.32775C77.2631 8.69589 76.7788 8.16388 76.2058 7.73159C75.6433 7.28819 74.9975 6.95013 74.2683 6.71731C73.5496 6.48449 72.7526 6.36814 71.8776 6.36814C70.2421 6.36814 68.8046 6.80042 67.565 7.66511C66.3359 8.52967 65.3775 9.78778 64.69 11.4394C64.0025 13.0799 63.6588 15.0863 63.6588 17.4584C63.6588 19.8306 63.9973 21.8479 64.6744 23.5107C65.3515 25.1734 66.3098 26.4426 67.5494 27.3183C68.789 28.183 70.2526 28.6152 71.9401 28.6152C73.4714 28.6152 74.7787 28.3271 75.862 27.7507C76.9559 27.1632 77.7891 26.3374 78.3621 25.2732C78.9455 24.2091 79.2371 22.951 79.2371 21.4988L80.6121 21.715H72.362V16.2945H85.7528V20.5843C85.7528 23.5772 85.159 26.1489 83.9716 28.2993C82.7841 30.4387 81.1486 32.0903 79.0653 33.2542C76.9818 34.407 74.5965 34.9834 71.9089 34.9834C68.9088 34.9834 66.2734 34.2795 64.0025 32.8718C61.7316 31.4529 59.9608 29.4411 58.6899 26.8361C57.4295 24.2202 56.7993 21.1164 56.7993 17.525C56.7993 14.7648 57.1743 12.304 57.9243 10.1425C58.6847 7.96992 59.7472 6.12981 61.1119 4.62226C62.4765 3.11471 64.065 1.96746 65.8775 1.1805C67.6901 0.393421 69.6536 0 71.7683 0C73.5808 0 75.2683 0.28257 76.8308 0.847945C78.3934 1.4022 79.7787 2.18916 80.9871 3.20894C82.2059 4.22884 83.2007 5.44258 83.9716 6.85029C84.7425 8.24699 85.2372 9.78778 85.4559 11.4727H78.5808ZM89.8669 34.5179V0.465527H96.6327V28.582H110.352V34.5179H89.8669ZM120.63 0.465527V34.5179H113.865V0.465527H120.63ZM142.588 10.2589C142.463 8.91759 141.927 7.87569 140.979 7.13298C140.031 6.39026 138.745 6.01896 137.119 6.01896C136.014 6.01896 135.083 6.1853 134.323 6.51773C133.561 6.83928 132.978 7.28819 132.573 7.86457C132.177 8.44095 131.979 9.09493 131.979 9.82653C131.958 10.4363 132.078 10.9683 132.338 11.4228C132.609 11.8772 132.978 12.2707 133.447 12.6033C133.916 12.9247 134.458 13.2074 135.072 13.4512C135.687 13.6841 136.343 13.8836 137.041 14.0499L139.916 14.7815C141.312 15.114 142.594 15.5574 143.76 16.1117C144.927 16.6659 145.937 17.3475 146.791 18.1567C147.645 18.9659 148.307 19.9192 148.776 21.0166C149.254 22.114 149.5 23.3721 149.509 24.7909C149.5 26.8749 148.999 28.6817 148.01 30.2114C147.031 31.7301 145.614 32.9106 143.76 33.753C141.916 34.5843 139.692 35 137.088 35C134.504 35 132.255 34.5788 130.337 33.7364C128.432 32.894 126.942 31.6468 125.869 29.9953C124.806 28.3326 124.249 26.2764 124.197 23.8266H130.744C130.817 24.9684 131.124 25.9216 131.666 26.6865C132.218 27.4402 132.952 28.0111 133.869 28.399C134.797 28.776 135.843 28.9644 137.01 28.9644C138.155 28.9644 139.151 28.7871 139.994 28.4323C140.848 28.0776 141.51 27.5843 141.979 26.9525C142.447 26.3207 142.682 25.5946 142.682 24.7743C142.682 24.0095 142.468 23.3666 142.041 22.8456C141.625 22.3246 141.01 21.8812 140.198 21.5154C139.395 21.1496 138.41 20.8172 137.244 20.5178L133.759 19.5867C131.062 18.8883 128.931 17.7966 127.369 16.3111C125.806 14.8258 125.031 12.825 125.041 10.3088C125.031 8.24698 125.546 6.44575 126.587 4.90495C127.64 3.36416 129.082 2.16154 130.916 1.29685C132.75 0.432284 134.833 0 137.166 0C139.541 0 141.614 0.432284 143.385 1.29685C145.167 2.16154 146.552 3.36416 147.542 4.90495C148.53 6.44575 149.041 8.23036 149.073 10.2589H142.588ZM153.093 34.5179V0.465527H159.858V14.5154H173.593V0.465527H180.343V34.5179H173.593V20.4514H159.858V34.5179H153.093ZM213.188 12.3872H206.344C206.22 11.4449 205.965 10.6081 205.578 9.87651C205.193 9.13379 204.698 8.50193 204.095 7.98092C203.491 7.46003 202.792 7.06099 202 6.7838C201.219 6.50673 200.37 6.36814 199.454 6.36814C197.797 6.36814 196.355 6.80604 195.125 7.68173C193.896 8.5463 192.944 9.8099 192.266 11.4727C191.588 13.1243 191.251 15.1306 191.251 17.4916C191.251 19.9192 191.588 21.9588 192.266 23.6104C192.954 25.2621 193.912 26.5091 195.142 27.3515C196.37 28.194 197.793 28.6152 199.406 28.6152C200.313 28.6152 201.152 28.4878 201.922 28.2328C202.704 27.9779 203.396 27.6065 204.001 27.1188C204.605 26.6199 205.104 26.0158 205.5 25.3064C205.907 24.597 206.188 23.7878 206.344 22.8788L213.188 22.9121C213.011 24.4751 212.568 25.9826 211.861 27.4347C211.162 28.8757 210.219 30.167 209.031 31.3088C207.854 32.4394 206.449 33.3374 204.813 34.0025C203.188 34.6564 201.35 34.9834 199.297 34.9834C196.443 34.9834 193.891 34.2961 191.641 32.9217C189.402 31.5471 187.631 29.5574 186.328 26.9525C185.037 24.3477 184.391 21.194 184.391 17.4916C184.391 13.7783 185.048 10.6191 186.36 8.01428C187.672 5.40934 189.453 3.42514 191.704 2.06169C193.954 0.687228 196.485 0 199.297 0C201.152 0 202.87 0.277068 204.454 0.831323C206.047 1.38558 207.46 2.19478 208.688 3.25893C209.917 4.31195 210.918 5.6033 211.688 7.13298C212.469 8.66265 212.969 10.414 213.188 12.3872ZM246.478 17.4916C246.478 21.2051 245.817 24.3643 244.494 26.9691C243.181 29.574 241.39 31.5637 239.119 32.9383C236.859 34.3017 234.318 34.9834 231.494 34.9834C228.65 34.9834 226.098 34.2961 223.838 32.9217C221.577 31.5471 219.791 29.5574 218.478 26.9525C217.166 24.3477 216.509 21.194 216.509 17.4916C216.509 13.7783 217.166 10.6191 218.478 8.01428C219.791 5.40934 221.577 3.42514 223.838 2.06169C226.098 0.687228 228.65 0 231.494 0C234.318 0 236.859 0.687228 239.119 2.06169C241.39 3.42514 243.181 5.40934 244.494 8.01428C245.817 10.6191 246.478 13.7783 246.478 17.4916ZM239.62 17.4916C239.62 15.0863 239.281 13.0578 238.603 11.4062C237.937 9.75454 236.994 8.50193 235.775 7.64848C234.556 6.79492 233.13 6.36814 231.494 6.36814C229.858 6.36814 228.431 6.79492 227.213 7.64848C225.994 8.50193 225.045 9.75454 224.369 11.4062C223.702 13.0578 223.369 15.0863 223.369 17.4916C223.369 19.8971 223.702 21.9256 224.369 23.5772C225.045 25.2288 225.994 26.4814 227.213 27.3349C228.431 28.1885 229.858 28.6152 231.494 28.6152C233.13 28.6152 234.556 28.1885 235.775 27.3349C236.994 26.4814 237.937 25.2288 238.603 23.5772C239.281 21.9256 239.62 19.8971 239.62 17.4916ZM270.288 0.465527H277.054V22.5795C277.054 25.0625 276.497 27.2352 275.382 29.0974C274.278 30.9596 272.731 32.4118 270.741 33.4537C268.751 34.4846 266.434 35 263.788 35C261.132 35 258.809 34.4846 256.819 33.4537C254.83 32.4118 253.283 30.9596 252.179 29.0974C251.074 27.2352 250.522 25.0625 250.522 22.5795V0.465527H257.288V21.9644C257.288 23.2613 257.554 24.4141 258.085 25.4228C258.627 26.4316 259.387 27.224 260.366 27.8005C261.345 28.3769 262.486 28.6651 263.788 28.6651C265.1 28.6651 266.241 28.3769 267.21 27.8005C268.189 27.224 268.945 26.4316 269.476 25.4228C270.018 24.4141 270.288 23.2613 270.288 21.9644V0.465527ZM281.652 34.5179V0.465527H294.277C296.694 0.465527 298.757 0.925553 300.465 1.8456C302.184 2.75454 303.491 4.04588 304.388 5.71965C305.294 7.38242 305.747 9.33887 305.747 11.589C305.747 13.8503 305.288 15.7957 304.372 17.4251C303.455 19.0435 302.127 20.285 300.387 21.1496C298.658 22.0143 296.564 22.4466 294.106 22.4466H285.653V16.6603H293.012C294.304 16.6603 295.376 16.4718 296.231 16.095C297.086 15.7181 297.72 15.1528 298.137 14.399C298.564 13.6453 298.777 12.7087 298.777 11.589C298.777 10.4584 298.564 9.50509 298.137 8.72925C297.72 7.95329 297.08 7.3658 296.216 6.96676C295.361 6.5566 294.283 6.35152 292.98 6.35152H288.419V34.5179H281.652ZM298.934 19.0214L306.888 34.5179H299.419L291.637 19.0214H298.934ZM326.919 10.2589C326.795 8.91759 326.258 7.87569 325.31 7.13298C324.363 6.39026 323.076 6.01896 321.451 6.01896C320.347 6.01896 319.414 6.1853 318.654 6.51773C317.894 6.83928 317.311 7.28819 316.904 7.86457C316.508 8.44095 316.311 9.09493 316.311 9.82653C316.29 10.4363 316.409 10.9683 316.669 11.4228C316.94 11.8772 317.311 12.2707 317.779 12.6033C318.248 12.9247 318.789 13.2074 319.404 13.4512C320.019 13.6841 320.674 13.8836 321.373 14.0499L324.247 14.7815C325.643 15.114 326.925 15.5574 328.092 16.1117C329.258 16.6659 330.269 17.3475 331.122 18.1567C331.977 18.9659 332.638 19.9192 333.107 21.0166C333.586 22.114 333.832 23.3721 333.842 24.7909C333.832 26.8749 333.331 28.6817 332.341 30.2114C331.362 31.7301 329.945 32.9106 328.092 33.753C326.248 34.5843 324.024 35 321.419 35C318.836 35 316.586 34.5788 314.669 33.7364C312.763 32.894 311.274 31.6468 310.201 29.9953C309.139 28.3326 308.581 26.2764 308.529 23.8266H315.075C315.149 24.9684 315.456 25.9216 315.997 26.6865C316.549 27.4402 317.284 28.0111 318.2 28.399C319.128 28.776 320.175 28.9644 321.341 28.9644C322.487 28.9644 323.482 28.7871 324.325 28.4323C325.18 28.0776 325.841 27.5843 326.31 26.9525C326.779 26.3207 327.014 25.5946 327.014 24.7743C327.014 24.0095 326.8 23.3666 326.372 22.8456C325.956 22.3246 325.342 21.8812 324.529 21.5154C323.727 21.1496 322.742 20.8172 321.575 20.5178L318.092 19.5867C315.393 18.8883 313.264 17.7966 311.7 16.3111C310.138 14.8258 309.362 12.825 309.373 10.3088C309.362 8.24698 309.878 6.44575 310.919 4.90495C311.971 3.36416 313.414 2.16154 315.248 1.29685C317.081 0.432284 319.164 0 321.497 0C323.873 0 325.946 0.432284 327.717 1.29685C329.498 2.16154 330.884 3.36416 331.873 4.90495C332.863 6.44575 333.373 8.23036 333.404 10.2589H326.919ZM337.424 34.5179V0.465527H358.987V6.40138H344.191V14.5154H357.878V20.4514H344.191V28.582H359.05V34.5179H337.424ZM380.758 10.2589C380.633 8.91759 380.096 7.87569 379.148 7.13298C378.201 6.39026 376.914 6.01896 375.289 6.01896C374.185 6.01896 373.253 6.1853 372.492 6.51773C371.732 6.83928 371.149 7.28819 370.742 7.86457C370.347 8.44095 370.149 9.09493 370.149 9.82653C370.128 10.4363 370.248 10.9683 370.507 11.4228C370.779 11.8772 371.149 12.2707 371.617 12.6033C372.086 12.9247 372.627 13.2074 373.242 13.4512C373.857 13.6841 374.513 13.8836 375.211 14.0499L378.087 14.7815C379.481 15.114 380.763 15.5574 381.93 16.1117C383.096 16.6659 384.107 17.3475 384.962 18.1567C385.815 18.9659 386.476 19.9192 386.946 21.0166C387.425 22.114 387.67 23.3721 387.68 24.7909C387.67 26.8749 387.169 28.6817 386.18 30.2114C385.2 31.7301 383.783 32.9106 381.93 33.753C380.086 34.5843 377.862 35 375.258 35C372.674 35 370.425 34.5788 368.508 33.7364C366.601 32.894 365.112 31.6468 364.039 29.9953C362.977 28.3326 362.419 26.2764 362.367 23.8266H368.913C368.987 24.9684 369.294 25.9216 369.836 26.6865C370.387 27.4402 371.122 28.0111 372.039 28.399C372.966 28.776 374.013 28.9644 375.18 28.9644C376.325 28.9644 377.321 28.7871 378.165 28.4323C379.018 28.0776 379.679 27.5843 380.149 26.9525C380.618 26.3207 380.852 25.5946 380.852 24.7743C380.852 24.0095 380.639 23.3666 380.211 22.8456C379.795 22.3246 379.18 21.8812 378.367 21.5154C377.565 21.1496 376.581 20.8172 375.415 20.5178L371.93 19.5867C369.231 18.8883 367.102 17.7966 365.539 16.3111C363.977 14.8258 363.2 12.825 363.211 10.3088C363.2 8.24698 363.716 6.44575 364.758 4.90495C365.81 3.36416 367.252 2.16154 369.086 1.29685C370.919 0.432284 373.002 0 375.336 0C377.711 0 379.784 0.432284 381.555 1.29685C383.336 2.16154 384.722 3.36416 385.711 4.90495C386.701 6.44575 387.211 8.23036 387.242 10.2589H380.758ZM395.029 34.9501C393.997 34.9501 393.112 34.5622 392.372 33.7863C391.643 32.9993 391.278 32.057 391.278 30.9596C391.278 29.8733 391.643 28.9422 392.372 28.1663C393.112 27.3904 393.997 27.0023 395.029 27.0023C396.029 27.0023 396.903 27.3904 397.654 28.1663C398.404 28.9422 398.779 29.8733 398.779 30.9596C398.779 31.6912 398.602 32.3618 398.248 32.9716C397.903 33.5701 397.45 34.0523 396.888 34.4181C396.325 34.7728 395.705 34.9501 395.029 34.9501Z" fill="#0D99FF"/>
<path d="M433.041 12.3872H426.197C426.073 11.4449 425.817 10.6081 425.431 9.87651C425.046 9.13379 424.551 8.50193 423.947 7.98092C423.343 7.46003 422.645 7.06099 421.854 6.7838C421.072 6.50673 420.224 6.36814 419.306 6.36814C417.651 6.36814 416.208 6.80604 414.979 7.68173C413.749 8.5463 412.797 9.8099 412.119 11.4727C411.442 13.1243 411.104 15.1306 411.104 17.4916C411.104 19.9192 411.442 21.9588 412.119 23.6104C412.806 25.2621 413.765 26.5091 414.994 27.3515C416.223 28.194 417.645 28.6152 419.26 28.6152C420.166 28.6152 421.005 28.4878 421.776 28.2328C422.557 27.9779 423.25 27.6065 423.854 27.1188C424.458 26.6199 424.958 26.0158 425.353 25.3064C425.76 24.597 426.041 23.7878 426.197 22.8788L433.041 22.9121C432.864 24.4751 432.422 25.9826 431.714 27.4347C431.015 28.8757 430.072 30.167 428.885 31.3088C427.708 32.4394 426.301 33.3374 424.666 34.0025C423.041 34.6564 421.203 34.9834 419.15 34.9834C416.296 34.9834 413.744 34.2961 411.494 32.9217C409.254 31.5471 407.483 29.5574 406.181 26.9525C404.89 24.3477 404.244 21.194 404.244 17.4916C404.244 13.7783 404.901 10.6191 406.213 8.01428C407.525 5.40934 409.306 3.42514 411.557 2.06169C413.806 0.687228 416.337 0 419.15 0C421.005 0 422.723 0.277068 424.307 0.831323C425.901 1.38558 427.312 2.19478 428.541 3.25893C429.771 4.31195 430.771 5.6033 431.541 7.13298C432.323 8.66265 432.822 10.414 433.041 12.3872ZM466.331 17.4916C466.331 21.2051 465.67 24.3643 464.348 26.9691C463.034 29.574 461.244 31.5637 458.972 32.9383C456.711 34.3017 454.17 34.9834 451.347 34.9834C448.503 34.9834 445.951 34.2961 443.691 32.9217C441.43 31.5471 439.644 29.5574 438.331 26.9525C437.019 24.3477 436.362 21.194 436.362 17.4916C436.362 13.7783 437.019 10.6191 438.331 8.01428C439.644 5.40934 441.43 3.42514 443.691 2.06169C445.951 0.687228 448.503 0 451.347 0C454.17 0 456.711 0.687228 458.972 2.06169C461.244 3.42514 463.034 5.40934 464.348 8.01428C465.67 10.6191 466.331 13.7783 466.331 17.4916ZM459.472 17.4916C459.472 15.0863 459.134 13.0578 458.456 11.4062C457.789 9.75454 456.847 8.50193 455.628 7.64848C454.409 6.79492 452.982 6.36814 451.347 6.36814C449.712 6.36814 448.284 6.79492 447.065 7.64848C445.847 8.50193 444.899 9.75454 444.222 11.4062C443.555 13.0578 443.222 15.0863 443.222 17.4916C443.222 19.8971 443.555 21.9256 444.222 23.5772C444.899 25.2288 445.847 26.4814 447.065 27.3349C448.284 28.1885 449.712 28.6152 451.347 28.6152C452.982 28.6152 454.409 28.1885 455.628 27.3349C456.847 26.4814 457.789 25.2288 458.456 23.5772C459.134 21.9256 459.472 19.8971 459.472 17.4916ZM470.376 0.465527H478.719L487.532 23.3444H487.907L496.719 0.465527H505.064V34.5179H498.501V12.3539H498.235L489.954 34.3516H485.485L477.204 12.2707H476.939V34.5179H470.376V0.465527ZM513.435 34.9501C512.404 34.9501 511.519 34.5622 510.779 33.7863C510.05 32.9993 509.685 32.057 509.685 30.9596C509.685 29.8733 510.05 28.9422 510.779 28.1663C511.519 27.3904 512.404 27.0023 513.435 27.0023C514.436 27.0023 515.31 27.3904 516.061 28.1663C516.811 28.9422 517.186 29.8733 517.186 30.9596C517.186 31.6912 517.009 32.3618 516.655 32.9716C516.31 33.5701 515.857 34.0523 515.295 34.4181C514.732 34.7728 514.113 34.9501 513.435 34.9501ZM541.573 0.465527H548.34V22.5795C548.34 25.0625 547.782 27.2352 546.668 29.0974C545.563 30.9596 544.017 32.4118 542.027 33.4537C540.037 34.4846 537.719 35 535.073 35C532.417 35 530.094 34.4846 528.105 33.4537C526.115 32.4118 524.568 30.9596 523.464 29.0974C522.359 27.2352 521.807 25.0625 521.807 22.5795V0.465527H528.573V21.9644C528.573 23.2613 528.838 24.4141 529.37 25.4228C529.912 26.4316 530.672 27.224 531.651 27.8005C532.63 28.3769 533.771 28.6651 535.073 28.6651C536.386 28.6651 537.526 28.3769 538.496 27.8005C539.475 27.224 540.229 26.4316 540.76 25.4228C541.303 24.4141 541.573 23.2613 541.573 21.9644V0.465527ZM558.453 34.5179H551.203L562.25 0.465527H570.969L582 34.5179H574.75L566.735 8.24699H566.484L558.453 34.5179ZM558 21.133H575.125V26.753H558V21.133Z" fill="#FFCD29"/>
</svg>
